<svg xmlns="http://www.w3.org/2000/svg" viewBox="0 0 32 32">
  <defs>
    <clipPath id="doc">
      <path d="M4 3a3 3 0 0 1 3-3h12l9 9v20a3 3 0 0 1-3 3H7a3 3 0 0 1-3-3V3z"/>
    </clipPath>
  </defs>
  <path d="M4 3a3 3 0 0 1 3-3h12l9 9v20a3 3 0 0 1-3 3H7a3 3 0 0 1-3-3V3z" fill="#16161a"/>
  <path d="M19 0l9 9h-6a3 3 0 0 1-3-3V0z" fill="#e05270"/>
  <text x="14" y="24.5" text-anchor="middle" font-family="ui-rounded, system-ui, sans-serif" font-weight="900" font-size="18" fill="#e05270">P</text>
</svg>
